<?xml version="1.0" encoding="UTF-8" standalone="no"?>
<!DOCTYPE svg PUBLIC "-//W3C//DTD SVG 1.1//EN"
 "http://www.w3.org/Graphics/SVG/1.1/DTD/svg11.dtd">
<!-- Generated by graphviz version 2.36.0 (20140111.2315)
 -->
<!-- Title: LinearOperator Pages: 1 -->
<svg width="234pt" height="408pt"
 viewBox="0.00 0.00 234.00 408.00" xmlns="http://www.w3.org/2000/svg" xmlns:xlink="http://www.w3.org/1999/xlink">
<g id="graph0" class="graph" transform="scale(1 1) rotate(0) translate(4 404)">
<title>LinearOperator</title>
<polygon fill="white" stroke="none" points="-4,4 -4,-404 230,-404 230,4 -4,4"/>
<!-- Node1 -->
<g id="node1" class="node"><title>Node1</title>
<polygon fill="#bfbfbf" stroke="black" points="0,-190.5 0,-209.5 80,-209.5 80,-190.5 0,-190.5"/>
<text text-anchor="middle" x="40" y="-197.5" font-family="Helvetica,sans-Serif" font-size="10.00">LinearOperator</text>
</g>
<!-- Node2 -->
<g id="node2" class="node"><title>Node2</title>
<g id="a_node2"><a xlink:href="class_matrix_operator.html" target="_top" xlink:title="A linear operator T(x) = M*x, where M is a Matrix. ">
<polygon fill="white" stroke="black" points="130.5,-380.5 130.5,-399.5 211.5,-399.5 211.5,-380.5 130.5,-380.5"/>
<text text-anchor="middle" x="171" y="-387.5" font-family="Helvetica,sans-Serif" font-size="10.00">MatrixOperator</text>
</a>
</g>
</g>
<!-- Node1&#45;&gt;Node2 -->
<g id="edge1" class="edge"><title>Node1&#45;&gt;Node2</title>
<path fill="none" stroke="midnightblue" d="M44.3371,-219.665C51.323,-254.9 70.751,-329.024 116,-371 120.153,-374.853 125.134,-377.932 130.368,-380.39"/>
<polygon fill="midnightblue" stroke="midnightblue" points="47.7509,-218.877 42.4892,-209.681 40.8678,-220.151 47.7509,-218.877"/>
</g>
<!-- Node3 -->
<g id="node3" class="node"><title>Node3</title>
<g id="a_node3"><a xlink:href="class_op_adjoint.html" target="_top" xlink:title="Adjoint of a given linear operator. ">
<polygon fill="white" stroke="black" points="141.5,-342.5 141.5,-361.5 200.5,-361.5 200.5,-342.5 141.5,-342.5"/>
<text text-anchor="middle" x="171" y="-349.5" font-family="Helvetica,sans-Serif" font-size="10.00">OpAdjoint</text>
</a>
</g>
</g>
<!-- Node1&#45;&gt;Node3 -->
<g id="edge2" class="edge"><title>Node1&#45;&gt;Node3</title>
<path fill="none" stroke="midnightblue" d="M46.9467,-219.249C56.7753,-247.988 79.0776,-302.037 116,-333 123.234,-339.067 132.536,-343.247 141.374,-346.106"/>
<polygon fill="midnightblue" stroke="midnightblue" points="50.2186,-217.993 43.7861,-209.575 43.5647,-220.167 50.2186,-217.993"/>
</g>
<!-- Node4 -->
<g id="node4" class="node"><title>Node4</title>
<g id="a_node4"><a xlink:href="class_op_composition.html" target="_top" xlink:title="The composition of two linear operators T(x) = A(B(x)) ">
<polygon fill="white" stroke="black" points="129,-304.5 129,-323.5 213,-323.5 213,-304.5 129,-304.5"/>
<text text-anchor="middle" x="171" y="-311.5" font-family="Helvetica,sans-Serif" font-size="10.00">OpComposition</text>
</a>
</g>
</g>
<!-- Node1&#45;&gt;Node4 -->
<g id="edge3" class="edge"><title>Node1&#45;&gt;Node4</title>
<path fill="none" stroke="midnightblue" d="M51.0646,-218.266C63.6472,-239.524 87.0882,-274.341 116,-295 121.337,-298.813 127.511,-301.923 133.736,-304.439"/>
<polygon fill="midnightblue" stroke="midnightblue" points="54.0784,-216.486 46.0668,-209.553 48.0064,-219.969 54.0784,-216.486"/>
</g>
<!-- Node5 -->
<g id="node5" class="node"><title>Node5</title>
<g id="a_node5"><a xlink:href="class_op_d_c_t2.html" target="_top" xlink:title="The Discrete Cosine Transform Type II (DCT&#45;II) ">
<polygon fill="white" stroke="black" points="143,-266.5 143,-285.5 199,-285.5 199,-266.5 143,-266.5"/>
<text text-anchor="middle" x="171" y="-273.5" font-family="Helvetica,sans-Serif" font-size="10.00">OpDCT2</text>
</a>
</g>
</g>
<!-- Node1&#45;&gt;Node5 -->
<g id="edge4" class="edge"><title>Node1&#45;&gt;Node5</title>
<path fill="none" stroke="midnightblue" d="M59.1619,-216.396C73.7008,-228.856 95.057,-245.719 116,-257 124.4,-261.525 134.093,-265.328 142.929,-268.314"/>
<polygon fill="midnightblue" stroke="midnightblue" points="61.2749,-213.594 51.444,-209.644 56.6658,-218.863 61.2749,-213.594"/>
</g>
<!-- Node6 -->
<g id="node6" class="node"><title>Node6</title>
<g id="a_node6"><a xlink:href="class_op_d_c_t3.html" target="_top" xlink:title="The Discrete Cosine Transform Type III (DCT&#45;III or IDCT) ">
<polygon fill="white" stroke="black" points="143,-228.5 143,-247.5 199,-247.5 199,-228.5 143,-228.5"/>
<text text-anchor="middle" x="171" y="-235.5" font-family="Helvetica,sans-Serif" font-size="10.00">OpDCT3</text>
</a>
</g>
</g>
<!-- Node1&#45;&gt;Node6 -->
<g id="edge5" class="edge"><title>Node1&#45;&gt;Node6</title>
<path fill="none" stroke="midnightblue" d="M83.1582,-212.419C102.721,-218.181 125.411,-224.865 142.692,-229.956"/>
<polygon fill="midnightblue" stroke="midnightblue" points="84.1336,-209.057 73.5521,-209.589 82.1556,-215.772 84.1336,-209.057"/>
</g>
<!-- Node7 -->
<g id="node7" class="node"><title>Node7</title>
<g id="a_node7"><a xlink:href="class_op_gradient.html" target="_top" xlink:title="Discrete gradient transform. ">
<polygon fill="white" stroke="black" points="138,-190.5 138,-209.5 204,-209.5 204,-190.5 138,-190.5"/>
<text text-anchor="middle" x="171" y="-197.5" font-family="Helvetica,sans-Serif" font-size="10.00">OpGradient</text>
</a>
</g>
</g>
<!-- Node1&#45;&gt;Node7 -->
<g id="edge6" class="edge"><title>Node1&#45;&gt;Node7</title>
<path fill="none" stroke="midnightblue" d="M90.243,-200C106.1,-200 123.261,-200 137.588,-200"/>
<polygon fill="midnightblue" stroke="midnightblue" points="90.0544,-196.5 80.0543,-200 90.0543,-203.5 90.0544,-196.5"/>
</g>
<!-- Node8 -->
<g id="node8" class="node"><title>Node8</title>
<g id="a_node8"><a xlink:href="class_op_gradient2_d.html" target="_top" xlink:title="OpGradient2D">
<polygon fill="white" stroke="black" points="131.5,-152.5 131.5,-171.5 210.5,-171.5 210.5,-152.5 131.5,-152.5"/>
<text text-anchor="middle" x="171" y="-159.5" font-family="Helvetica,sans-Serif" font-size="10.00">OpGradient2D</text>
</a>
</g>
</g>
<!-- Node1&#45;&gt;Node8 -->
<g id="edge7" class="edge"><title>Node1&#45;&gt;Node8</title>
<path fill="none" stroke="midnightblue" d="M83.554,-187.465C101.103,-182.295 121.113,-176.401 137.458,-171.586"/>
<polygon fill="midnightblue" stroke="midnightblue" points="82.1556,-184.228 73.5521,-190.411 84.1336,-190.943 82.1556,-184.228"/>
</g>
<!-- Node9 -->
<g id="node9" class="node"><title>Node9</title>
<g id="a_node9"><a xlink:href="class_op_linear_combination.html" target="_top" xlink:title="Linear combination of two linear operators T(x) = a*A(x) + b*B(x) ">
<polygon fill="white" stroke="black" points="116,-114.5 116,-133.5 226,-133.5 226,-114.5 116,-114.5"/>
<text text-anchor="middle" x="171" y="-121.5" font-family="Helvetica,sans-Serif" font-size="10.00">OpLinearCombination</text>
</a>
</g>
</g>
<!-- Node1&#45;&gt;Node9 -->
<g id="edge8" class="edge"><title>Node1&#45;&gt;Node9</title>
<path fill="none" stroke="midnightblue" d="M59.1619,-183.604C73.7008,-171.144 95.057,-154.281 116,-143 122.737,-139.371 130.307,-136.206 137.599,-133.554"/>
<polygon fill="midnightblue" stroke="midnightblue" points="56.6658,-181.137 51.444,-190.356 61.2749,-186.406 56.6658,-181.137"/>
</g>
<!-- Node10 -->
<g id="node10" class="node"><title>Node10</title>
<g id="a_node10"><a xlink:href="class_op_l_t_i.html" target="_top" xlink:title="OpLTI simulates a LTI system with zero initial condition ">
<polygon fill="white" stroke="black" points="149,-76.5 149,-95.5 193,-95.5 193,-76.5 149,-76.5"/>
<text text-anchor="middle" x="171" y="-83.5" font-family="Helvetica,sans-Serif" font-size="10.00">OpLTI</text>
</a>
</g>
</g>
<!-- Node1&#45;&gt;Node10 -->
<g id="edge9" class="edge"><title>Node1&#45;&gt;Node10</title>
<path fill="none" stroke="midnightblue" d="M51.0646,-181.734C63.6472,-160.476 87.0882,-125.659 116,-105 125.784,-98.0087 138.383,-93.3817 148.95,-90.4459"/>
<polygon fill="midnightblue" stroke="midnightblue" points="48.0064,-180.031 46.0668,-190.447 54.0784,-183.514 48.0064,-180.031"/>
</g>
<!-- Node11 -->
<g id="node11" class="node"><title>Node11</title>
<g id="a_node11"><a xlink:href="class_op_reverse_vector.html" target="_top" xlink:title="A linear operator T(x) which reverses the order of elements in x ">
<polygon fill="white" stroke="black" points="123.5,-38.5 123.5,-57.5 218.5,-57.5 218.5,-38.5 123.5,-38.5"/>
<text text-anchor="middle" x="171" y="-45.5" font-family="Helvetica,sans-Serif" font-size="10.00">OpReverseVector</text>
</a>
</g>
</g>
<!-- Node1&#45;&gt;Node11 -->
<g id="edge10" class="edge"><title>Node1&#45;&gt;Node11</title>
<path fill="none" stroke="midnightblue" d="M46.9467,-180.751C56.7753,-152.012 79.0776,-97.9626 116,-67 120.569,-63.1684 125.963,-60.0892 131.543,-57.6201"/>
<polygon fill="midnightblue" stroke="midnightblue" points="43.5647,-179.833 43.7861,-190.425 50.2186,-182.007 43.5647,-179.833"/>
</g>
<!-- Node12 -->
<g id="node12" class="node"><title>Node12</title>
<g id="a_node12"><a xlink:href="class_op_sum.html" target="_top" xlink:title="The sum of two linear operators T(x) = A(x) + B(x) ">
<polygon fill="white" stroke="black" points="146,-0.5 146,-19.5 196,-19.5 196,-0.5 146,-0.5"/>
<text text-anchor="middle" x="171" y="-7.5" font-family="Helvetica,sans-Serif" font-size="10.00">OpSum</text>
</a>
</g>
</g>
<!-- Node1&#45;&gt;Node12 -->
<g id="edge11" class="edge"><title>Node1&#45;&gt;Node12</title>
<path fill="none" stroke="midnightblue" d="M44.3371,-180.335C51.323,-145.1 70.751,-70.9763 116,-29 124.233,-21.3623 135.719,-16.7653 145.983,-14.0127"/>
<polygon fill="midnightblue" stroke="midnightblue" points="40.8678,-179.849 42.4892,-190.319 47.7509,-181.123 40.8678,-179.849"/>
</g>
</g>
</svg>
