<?xml version="1.0" encoding="UTF-8" standalone="no"?>
<!DOCTYPE svg PUBLIC "-//W3C//DTD SVG 1.1//EN"
 "http://www.w3.org/Graphics/SVG/1.1/DTD/svg11.dtd">
<!-- Generated by graphviz version 2.36.0 (20140111.2315)
 -->
<!-- Title: MatrixSolver Pages: 1 -->
<svg width="149pt" height="96pt"
 viewBox="0.00 0.00 149.00 96.00" xmlns="http://www.w3.org/2000/svg" xmlns:xlink="http://www.w3.org/1999/xlink">
<g id="graph0" class="graph" transform="scale(1 1) rotate(0) translate(4 92)">
<title>MatrixSolver</title>
<polygon fill="white" stroke="none" points="-4,4 -4,-92 145,-92 145,4 -4,4"/>
<!-- Node1 -->
<g id="node1" class="node"><title>Node1</title>
<polygon fill="#bfbfbf" stroke="black" points="39.5,-0.5 39.5,-19.5 110.5,-19.5 110.5,-0.5 39.5,-0.5"/>
<text text-anchor="middle" x="75" y="-7.5" font-family="Helvetica,sans-Serif" font-size="10.00">MatrixSolver</text>
</g>
<!-- Node2 -->
<g id="node2" class="node"><title>Node2</title>
<g id="a_node2"><a xlink:href="class_lin_sys_solver.html" target="_top" xlink:title="An abstract solver for linear systems. ">
<polygon fill="white" stroke="black" points="0,-68.5 0,-87.5 74,-87.5 74,-68.5 0,-68.5"/>
<text text-anchor="middle" x="37" y="-75.5" font-family="Helvetica,sans-Serif" font-size="10.00">LinSysSolver</text>
</a>
</g>
</g>
<!-- Node2&#45;&gt;Node1 -->
<g id="edge1" class="edge"><title>Node2&#45;&gt;Node1</title>
<path fill="none" stroke="midnightblue" d="M47.0395,-59.563C54.3985,-46.7815 64.0837,-29.9599 69.9097,-19.8411"/>
<polygon fill="midnightblue" stroke="midnightblue" points="43.9243,-57.959 41.9678,-68.3717 49.9907,-61.4518 43.9243,-57.959"/>
</g>
<!-- Node3 -->
<g id="node3" class="node"><title>Node3</title>
<g id="a_node3"><a xlink:href="class_matrix.html" target="_top" xlink:title="A generic matrix API. ">
<polygon fill="white" stroke="black" points="92,-68.5 92,-87.5 136,-87.5 136,-68.5 92,-68.5"/>
<text text-anchor="middle" x="114" y="-75.5" font-family="Helvetica,sans-Serif" font-size="10.00">Matrix</text>
</a>
</g>
</g>
<!-- Node3&#45;&gt;Node1 -->
<g id="edge2" class="edge"><title>Node3&#45;&gt;Node1</title>
<path fill="none" stroke="#9a32cd" stroke-dasharray="5,2" d="M103.696,-59.563C96.1436,-46.7815 86.2036,-29.9599 80.2243,-19.8411"/>
<polygon fill="#9a32cd" stroke="#9a32cd" points="100.801,-61.5429 108.901,-68.3717 106.827,-57.9818 100.801,-61.5429"/>
<text text-anchor="middle" x="119" y="-41.5" font-family="Helvetica,sans-Serif" font-size="10.00"> m_matrix</text>
</g>
</g>
</svg>
