<?xml version="1.0" encoding="UTF-8" standalone="no"?>
<!DOCTYPE svg PUBLIC "-//W3C//DTD SVG 1.1//EN"
 "http://www.w3.org/Graphics/SVG/1.1/DTD/svg11.dtd">
<!-- Generated by graphviz version 2.36.0 (20140111.2315)
 -->
<!-- Title: S_LDLFactorization Pages: 1 -->
<svg width="149pt" height="212pt"
 viewBox="0.00 0.00 149.00 212.00" xmlns="http://www.w3.org/2000/svg" xmlns:xlink="http://www.w3.org/1999/xlink">
<g id="graph0" class="graph" transform="scale(1 1) rotate(0) translate(4 208)">
<title>S_LDLFactorization</title>
<polygon fill="white" stroke="none" points="-4,4 -4,-208 145,-208 145,4 -4,4"/>
<!-- Node1 -->
<g id="node1" class="node"><title>Node1</title>
<polygon fill="#bfbfbf" stroke="black" points="23.5,-0.5 23.5,-19.5 126.5,-19.5 126.5,-0.5 23.5,-0.5"/>
<text text-anchor="middle" x="75" y="-7.5" font-family="Helvetica,sans-Serif" font-size="10.00">S_LDLFactorization</text>
</g>
<!-- Node2 -->
<g id="node2" class="node"><title>Node2</title>
<g id="a_node2"><a xlink:href="class_factored_solver.html" target="_top" xlink:title="An abstract factorization&#45;based solver for linear systems. ">
<polygon fill="white" stroke="black" points="33.5,-58.5 33.5,-77.5 116.5,-77.5 116.5,-58.5 33.5,-58.5"/>
<text text-anchor="middle" x="75" y="-65.5" font-family="Helvetica,sans-Serif" font-size="10.00">FactoredSolver</text>
</a>
</g>
</g>
<!-- Node2&#45;&gt;Node1 -->
<g id="edge1" class="edge"><title>Node2&#45;&gt;Node1</title>
<path fill="none" stroke="midnightblue" d="M75,-47.953C75,-38.2875 75,-27.0312 75,-19.5052"/>
<polygon fill="midnightblue" stroke="midnightblue" points="71.5001,-48.25 75,-58.25 78.5001,-48.25 71.5001,-48.25"/>
</g>
<!-- Node3 -->
<g id="node3" class="node"><title>Node3</title>
<g id="a_node3"><a xlink:href="class_matrix_solver.html" target="_top" xlink:title="Abstraction layer for linear systems. ">
<polygon fill="white" stroke="black" points="39.5,-116.5 39.5,-135.5 110.5,-135.5 110.5,-116.5 39.5,-116.5"/>
<text text-anchor="middle" x="75" y="-123.5" font-family="Helvetica,sans-Serif" font-size="10.00">MatrixSolver</text>
</a>
</g>
</g>
<!-- Node3&#45;&gt;Node2 -->
<g id="edge2" class="edge"><title>Node3&#45;&gt;Node2</title>
<path fill="none" stroke="midnightblue" d="M75,-105.953C75,-96.2875 75,-85.0312 75,-77.5052"/>
<polygon fill="midnightblue" stroke="midnightblue" points="71.5001,-106.25 75,-116.25 78.5001,-106.25 71.5001,-106.25"/>
</g>
<!-- Node4 -->
<g id="node4" class="node"><title>Node4</title>
<g id="a_node4"><a xlink:href="class_lin_sys_solver.html" target="_top" xlink:title="An abstract solver for linear systems. ">
<polygon fill="white" stroke="black" points="0,-184.5 0,-203.5 74,-203.5 74,-184.5 0,-184.5"/>
<text text-anchor="middle" x="37" y="-191.5" font-family="Helvetica,sans-Serif" font-size="10.00">LinSysSolver</text>
</a>
</g>
</g>
<!-- Node4&#45;&gt;Node3 -->
<g id="edge3" class="edge"><title>Node4&#45;&gt;Node3</title>
<path fill="none" stroke="midnightblue" d="M47.0395,-175.563C54.3985,-162.781 64.0837,-145.96 69.9097,-135.841"/>
<polygon fill="midnightblue" stroke="midnightblue" points="43.9243,-173.959 41.9678,-184.372 49.9907,-177.452 43.9243,-173.959"/>
</g>
<!-- Node5 -->
<g id="node5" class="node"><title>Node5</title>
<g id="a_node5"><a xlink:href="class_matrix.html" target="_top" xlink:title="A generic matrix API. ">
<polygon fill="white" stroke="black" points="92,-184.5 92,-203.5 136,-203.5 136,-184.5 92,-184.5"/>
<text text-anchor="middle" x="114" y="-191.5" font-family="Helvetica,sans-Serif" font-size="10.00">Matrix</text>
</a>
</g>
</g>
<!-- Node5&#45;&gt;Node3 -->
<g id="edge4" class="edge"><title>Node5&#45;&gt;Node3</title>
<path fill="none" stroke="#9a32cd" stroke-dasharray="5,2" d="M103.696,-175.563C96.1436,-162.781 86.2036,-145.96 80.2243,-135.841"/>
<polygon fill="#9a32cd" stroke="#9a32cd" points="100.801,-177.543 108.901,-184.372 106.827,-173.982 100.801,-177.543"/>
<text text-anchor="middle" x="119" y="-157.5" font-family="Helvetica,sans-Serif" font-size="10.00"> m_matrix</text>
</g>
</g>
</svg>
