<?xml version="1.0" encoding="UTF-8" standalone="no"?>
<!DOCTYPE svg PUBLIC "-//W3C//DTD SVG 1.1//EN"
 "http://www.w3.org/Graphics/SVG/1.1/DTD/svg11.dtd">
<!-- Generated by graphviz version 2.36.0 (20140111.2315)
 -->
<!-- Title: CGSolver Pages: 1 -->
<svg width="180pt" height="154pt"
 viewBox="0.00 0.00 180.00 154.00" xmlns="http://www.w3.org/2000/svg" xmlns:xlink="http://www.w3.org/1999/xlink">
<g id="graph0" class="graph" transform="scale(1 1) rotate(0) translate(4 150)">
<title>CGSolver</title>
<polygon fill="white" stroke="none" points="-4,4 -4,-150 176,-150 176,4 -4,4"/>
<!-- Node1 -->
<g id="node1" class="node"><title>Node1</title>
<polygon fill="#bfbfbf" stroke="black" points="54.5,-0.5 54.5,-19.5 113.5,-19.5 113.5,-0.5 54.5,-0.5"/>
<text text-anchor="middle" x="84" y="-7.5" font-family="Helvetica,sans-Serif" font-size="10.00">CGSolver</text>
</g>
<!-- Node2 -->
<g id="node2" class="node"><title>Node2</title>
<g id="a_node2"><a xlink:href="class_lin_op_solver.html" target="_top" xlink:title="An abstract solver for linear operator equations. ">
<polygon fill="white" stroke="black" points="49,-58.5 49,-77.5 119,-77.5 119,-58.5 49,-58.5"/>
<text text-anchor="middle" x="84" y="-65.5" font-family="Helvetica,sans-Serif" font-size="10.00">LinOpSolver</text>
</a>
</g>
</g>
<!-- Node2&#45;&gt;Node1 -->
<g id="edge1" class="edge"><title>Node2&#45;&gt;Node1</title>
<path fill="none" stroke="midnightblue" d="M84,-47.953C84,-38.2875 84,-27.0312 84,-19.5052"/>
<polygon fill="midnightblue" stroke="midnightblue" points="80.5001,-48.25 84,-58.25 87.5001,-48.25 80.5001,-48.25"/>
</g>
<!-- Node3 -->
<g id="node3" class="node"><title>Node3</title>
<g id="a_node3"><a xlink:href="class_lin_sys_solver.html" target="_top" xlink:title="An abstract solver for linear systems. ">
<polygon fill="white" stroke="black" points="0,-126.5 0,-145.5 74,-145.5 74,-126.5 0,-126.5"/>
<text text-anchor="middle" x="37" y="-133.5" font-family="Helvetica,sans-Serif" font-size="10.00">LinSysSolver</text>
</a>
</g>
</g>
<!-- Node3&#45;&gt;Node2 -->
<g id="edge2" class="edge"><title>Node3&#45;&gt;Node2</title>
<path fill="none" stroke="midnightblue" d="M49.1504,-117.938C58.2839,-105.112 70.4276,-88.0591 77.7041,-77.8411"/>
<polygon fill="midnightblue" stroke="midnightblue" points="46.0942,-116.196 43.1444,-126.372 51.7962,-120.256 46.0942,-116.196"/>
</g>
<!-- Node4 -->
<g id="node4" class="node"><title>Node4</title>
<g id="a_node4"><a xlink:href="class_linear_operator.html" target="_top" xlink:title="A linear operator T(x) ">
<polygon fill="white" stroke="black" points="92,-126.5 92,-145.5 172,-145.5 172,-126.5 92,-126.5"/>
<text text-anchor="middle" x="132" y="-133.5" font-family="Helvetica,sans-Serif" font-size="10.00">LinearOperator</text>
</a>
</g>
</g>
<!-- Node4&#45;&gt;Node2 -->
<g id="edge3" class="edge"><title>Node4&#45;&gt;Node2</title>
<path fill="none" stroke="#9a32cd" stroke-dasharray="5,2" d="M119.591,-117.938C110.263,-105.112 97.8612,-88.0591 90.4299,-77.8411"/>
<polygon fill="#9a32cd" stroke="#9a32cd" points="117.012,-120.343 125.725,-126.372 122.674,-116.226 117.012,-120.343"/>
<text text-anchor="middle" x="130.5" y="-99.5" font-family="Helvetica,sans-Serif" font-size="10.00"> m_linop</text>
</g>
</g>
</svg>
