<?xml version="1.0" encoding="UTF-8" standalone="no"?>
<!DOCTYPE svg PUBLIC "-//W3C//DTD SVG 1.1//EN"
 "http://www.w3.org/Graphics/SVG/1.1/DTD/svg11.dtd">
<!-- Generated by graphviz version 2.36.0 (20140111.2315)
 -->
<!-- Title: Function Pages: 1 -->
<svg width="338pt" height="712pt"
 viewBox="0.00 0.00 338.00 712.00" xmlns="http://www.w3.org/2000/svg" xmlns:xlink="http://www.w3.org/1999/xlink">
<g id="graph0" class="graph" transform="scale(1 1) rotate(0) translate(4 708)">
<title>Function</title>
<polygon fill="white" stroke="none" points="-4,4 -4,-708 334,-708 334,4 -4,4"/>
<!-- Node1 -->
<g id="node1" class="node"><title>Node1</title>
<polygon fill="#bfbfbf" stroke="black" points="0,-342.5 0,-361.5 54,-361.5 54,-342.5 0,-342.5"/>
<text text-anchor="middle" x="27" y="-349.5" font-family="Helvetica,sans-Serif" font-size="10.00">Function</text>
</g>
<!-- Node2 -->
<g id="node2" class="node"><title>Node2</title>
<g id="a_node2"><a xlink:href="class_conjugate_function.html" target="_top" xlink:title="Conjugate of a given function. ">
<polygon fill="white" stroke="black" points="104,-684.5 104,-703.5 202,-703.5 202,-684.5 104,-684.5"/>
<text text-anchor="middle" x="153" y="-691.5" font-family="Helvetica,sans-Serif" font-size="10.00">ConjugateFunction</text>
</a>
</g>
</g>
<!-- Node1&#45;&gt;Node2 -->
<g id="edge1" class="edge"><title>Node1&#45;&gt;Node2</title>
<path fill="none" stroke="midnightblue" d="M29.1806,-371.824C33.3277,-434.92 49.2436,-629.599 90,-675 93.8355,-679.273 98.6034,-682.597 103.78,-685.181"/>
<polygon fill="midnightblue" stroke="midnightblue" points="32.661,-371.4 28.5399,-361.639 25.6748,-371.839 32.661,-371.4"/>
</g>
<!-- Node3 -->
<g id="node3" class="node"><title>Node3</title>
<g id="a_node3"><a xlink:href="class_distance_to_ball2.html" target="_top" xlink:title="Distance from the unit ball of R^n. ">
<polygon fill="white" stroke="black" points="108.5,-646.5 108.5,-665.5 197.5,-665.5 197.5,-646.5 108.5,-646.5"/>
<text text-anchor="middle" x="153" y="-653.5" font-family="Helvetica,sans-Serif" font-size="10.00">DistanceToBall2</text>
</a>
</g>
</g>
<!-- Node1&#45;&gt;Node3 -->
<g id="edge2" class="edge"><title>Node1&#45;&gt;Node3</title>
<path fill="none" stroke="midnightblue" d="M29.7255,-371.73C35.1755,-429.668 53.8389,-597.699 90,-637 94.9548,-642.385 101.391,-646.26 108.236,-649.045"/>
<polygon fill="midnightblue" stroke="midnightblue" points="33.203,-371.323 28.8104,-361.681 26.2318,-371.957 33.203,-371.323"/>
</g>
<!-- Node4 -->
<g id="node4" class="node"><title>Node4</title>
<g id="a_node4"><a xlink:href="class_distance_to_box.html" target="_top" xlink:title="Distance from a box in R^n. ">
<polygon fill="white" stroke="black" points="111,-608.5 111,-627.5 195,-627.5 195,-608.5 111,-608.5"/>
<text text-anchor="middle" x="153" y="-615.5" font-family="Helvetica,sans-Serif" font-size="10.00">DistanceToBox</text>
</a>
</g>
</g>
<!-- Node1&#45;&gt;Node4 -->
<g id="edge3" class="edge"><title>Node1&#45;&gt;Node4</title>
<path fill="none" stroke="midnightblue" d="M30.4521,-371.816C37.3398,-424.409 58.4416,-565.775 90,-599 95.6599,-604.959 103.133,-609.064 110.926,-611.889"/>
<polygon fill="midnightblue" stroke="midnightblue" points="33.9054,-371.226 29.167,-361.75 26.9617,-372.113 33.9054,-371.226"/>
</g>
<!-- Node5 -->
<g id="node5" class="node"><title>Node5</title>
<g id="a_node5"><a xlink:href="class_elastic_net.html" target="_top" xlink:title="Elastic net regularization function. ">
<polygon fill="white" stroke="black" points="122,-570.5 122,-589.5 184,-589.5 184,-570.5 122,-570.5"/>
<text text-anchor="middle" x="153" y="-577.5" font-family="Helvetica,sans-Serif" font-size="10.00">ElasticNet</text>
</a>
</g>
</g>
<!-- Node1&#45;&gt;Node5 -->
<g id="edge4" class="edge"><title>Node1&#45;&gt;Node5</title>
<path fill="none" stroke="midnightblue" d="M28.0064,-372.047C29.1339,-413.285 37.6426,-508.17 90,-561 98.4002,-569.476 110.474,-574.19 121.738,-576.805"/>
<polygon fill="midnightblue" stroke="midnightblue" points="31.5041,-371.864 27.8538,-361.918 24.5049,-371.97 31.5041,-371.864"/>
</g>
<!-- Node6 -->
<g id="node6" class="node"><title>Node6</title>
<g id="a_node6"><a xlink:href="class_hinge_loss.html" target="_top" xlink:title="Hinge loss function ">
<polygon fill="white" stroke="black" points="121.5,-532.5 121.5,-551.5 184.5,-551.5 184.5,-532.5 121.5,-532.5"/>
<text text-anchor="middle" x="153" y="-539.5" font-family="Helvetica,sans-Serif" font-size="10.00">HingeLoss</text>
</a>
</g>
</g>
<!-- Node1&#45;&gt;Node6 -->
<g id="edge5" class="edge"><title>Node1&#45;&gt;Node6</title>
<path fill="none" stroke="midnightblue" d="M29.5435,-371.773C33.3727,-407.181 46.4268,-481.572 90,-523 98.4853,-531.067 110.309,-535.716 121.358,-538.392"/>
<polygon fill="midnightblue" stroke="midnightblue" points="33.0207,-371.365 28.5975,-361.738 26.0516,-372.022 33.0207,-371.365"/>
</g>
<!-- Node7 -->
<g id="node7" class="node"><title>Node7</title>
<g id="a_node7"><a xlink:href="class_huber_loss.html" target="_top" xlink:title="Huber loss function. ">
<polygon fill="white" stroke="black" points="121,-494.5 121,-513.5 185,-513.5 185,-494.5 121,-494.5"/>
<text text-anchor="middle" x="153" y="-501.5" font-family="Helvetica,sans-Serif" font-size="10.00">HuberLoss</text>
</a>
</g>
</g>
<!-- Node1&#45;&gt;Node7 -->
<g id="edge6" class="edge"><title>Node1&#45;&gt;Node7</title>
<path fill="none" stroke="midnightblue" d="M31.8912,-371.776C38.6268,-400.795 55.2155,-454.739 90,-485 98.5786,-492.463 110.039,-496.995 120.771,-499.746"/>
<polygon fill="midnightblue" stroke="midnightblue" points="35.2376,-370.69 29.7102,-361.651 28.3945,-372.164 35.2376,-370.69"/>
</g>
<!-- Node8 -->
<g id="node8" class="node"><title>Node8</title>
<g id="a_node8"><a xlink:href="class_ind_ball2.html" target="_top" xlink:title="Indicator of a Euclidean ball. ">
<polygon fill="white" stroke="black" points="127,-456.5 127,-475.5 179,-475.5 179,-456.5 127,-456.5"/>
<text text-anchor="middle" x="153" y="-463.5" font-family="Helvetica,sans-Serif" font-size="10.00">IndBall2</text>
</a>
</g>
</g>
<!-- Node1&#45;&gt;Node8 -->
<g id="edge7" class="edge"><title>Node1&#45;&gt;Node8</title>
<path fill="none" stroke="midnightblue" d="M35.6409,-371.07C45.2136,-392.586 63.6259,-427.159 90,-447 100.706,-455.054 114.855,-459.726 126.934,-462.419"/>
<polygon fill="midnightblue" stroke="midnightblue" points="38.7839,-369.517 31.6556,-361.679 32.3401,-372.251 38.7839,-369.517"/>
</g>
<!-- Node9 -->
<g id="node9" class="node"><title>Node9</title>
<g id="a_node9"><a xlink:href="class_ind_box.html" target="_top" xlink:title="Indicator of a box. ">
<polygon fill="white" stroke="black" points="129.5,-418.5 129.5,-437.5 176.5,-437.5 176.5,-418.5 129.5,-418.5"/>
<text text-anchor="middle" x="153" y="-425.5" font-family="Helvetica,sans-Serif" font-size="10.00">IndBox</text>
</a>
</g>
</g>
<!-- Node1&#45;&gt;Node9 -->
<g id="edge8" class="edge"><title>Node1&#45;&gt;Node9</title>
<path fill="none" stroke="midnightblue" d="M43.037,-369.507C54.7032,-382.098 71.8927,-398.623 90,-409 102.112,-415.941 117.037,-420.616 129.208,-423.591"/>
<polygon fill="midnightblue" stroke="midnightblue" points="45.4983,-367.009 36.2142,-361.904 40.2887,-371.685 45.4983,-367.009"/>
</g>
<!-- Node10 -->
<g id="node10" class="node"><title>Node10</title>
<g id="a_node10"><a xlink:href="class_ind_pos.html" target="_top" xlink:title="Indicator of the positive orthant ">
<polygon fill="white" stroke="black" points="129.5,-380.5 129.5,-399.5 176.5,-399.5 176.5,-380.5 129.5,-380.5"/>
<text text-anchor="middle" x="153" y="-387.5" font-family="Helvetica,sans-Serif" font-size="10.00">IndPos</text>
</a>
</g>
</g>
<!-- Node1&#45;&gt;Node10 -->
<g id="edge9" class="edge"><title>Node1&#45;&gt;Node10</title>
<path fill="none" stroke="midnightblue" d="M63.9275,-363.01C85.0887,-369.495 111.205,-377.498 129.482,-383.099"/>
<polygon fill="midnightblue" stroke="midnightblue" points="64.8839,-359.643 54.2972,-360.059 62.8328,-366.335 64.8839,-359.643"/>
</g>
<!-- Node11 -->
<g id="node11" class="node"><title>Node11</title>
<g id="a_node11"><a xlink:href="class_ind_prob_simplex.html" target="_top" xlink:title="Indicator of the probability simplex ">
<polygon fill="white" stroke="black" points="110,-342.5 110,-361.5 196,-361.5 196,-342.5 110,-342.5"/>
<text text-anchor="middle" x="153" y="-349.5" font-family="Helvetica,sans-Serif" font-size="10.00">IndProbSimplex</text>
</a>
</g>
</g>
<!-- Node1&#45;&gt;Node11 -->
<g id="edge10" class="edge"><title>Node1&#45;&gt;Node11</title>
<path fill="none" stroke="midnightblue" d="M64.6264,-352C78.7567,-352 95.012,-352 109.641,-352"/>
<polygon fill="midnightblue" stroke="midnightblue" points="64.2972,-348.5 54.2972,-352 64.2972,-355.5 64.2972,-348.5"/>
</g>
<!-- Node12 -->
<g id="node12" class="node"><title>Node12</title>
<g id="a_node12"><a xlink:href="class_ind_s_o_c.html" target="_top" xlink:title="Indicator of a second&#45;order cone ">
<polygon fill="white" stroke="black" points="127,-304.5 127,-323.5 179,-323.5 179,-304.5 127,-304.5"/>
<text text-anchor="middle" x="153" y="-311.5" font-family="Helvetica,sans-Serif" font-size="10.00">IndSOC</text>
</a>
</g>
</g>
<!-- Node1&#45;&gt;Node12 -->
<g id="edge11" class="edge"><title>Node1&#45;&gt;Node12</title>
<path fill="none" stroke="midnightblue" d="M64.0282,-340.959C84.0777,-334.815 108.55,-327.315 126.589,-321.787"/>
<polygon fill="midnightblue" stroke="midnightblue" points="62.8328,-337.665 54.2972,-343.941 64.8839,-344.357 62.8328,-337.665"/>
</g>
<!-- Node13 -->
<g id="node13" class="node"><title>Node13</title>
<g id="a_node13"><a xlink:href="class_log_logistic_loss.html" target="_top" xlink:title="Log&#45;logistic loss function. ">
<polygon fill="white" stroke="black" points="109.5,-266.5 109.5,-285.5 196.5,-285.5 196.5,-266.5 109.5,-266.5"/>
<text text-anchor="middle" x="153" y="-273.5" font-family="Helvetica,sans-Serif" font-size="10.00">LogLogisticLoss</text>
</a>
</g>
</g>
<!-- Node1&#45;&gt;Node13 -->
<g id="edge12" class="edge"><title>Node1&#45;&gt;Node13</title>
<path fill="none" stroke="midnightblue" d="M43.037,-334.493C54.7032,-321.902 71.8927,-305.377 90,-295 96.6421,-291.194 104.13,-288.069 111.546,-285.532"/>
<polygon fill="midnightblue" stroke="midnightblue" points="40.2887,-332.315 36.2142,-342.096 45.4983,-336.991 40.2887,-332.315"/>
</g>
<!-- Node14 -->
<g id="node14" class="node"><title>Node14</title>
<g id="a_node14"><a xlink:href="class_l_q_cost.html" target="_top" xlink:title="Smooth part of a linear&#45;quadratic optimal control problem. ">
<polygon fill="white" stroke="black" points="128,-228.5 128,-247.5 178,-247.5 178,-228.5 128,-228.5"/>
<text text-anchor="middle" x="153" y="-235.5" font-family="Helvetica,sans-Serif" font-size="10.00">LQCost</text>
</a>
</g>
</g>
<!-- Node1&#45;&gt;Node14 -->
<g id="edge13" class="edge"><title>Node1&#45;&gt;Node14</title>
<path fill="none" stroke="midnightblue" d="M35.6409,-332.93C45.2136,-311.414 63.6259,-276.841 90,-257 100.976,-248.743 115.571,-244.041 127.843,-241.381"/>
<polygon fill="midnightblue" stroke="midnightblue" points="32.3401,-331.749 31.6556,-342.321 38.7839,-334.483 32.3401,-331.749"/>
</g>
<!-- Node15 -->
<g id="node15" class="node"><title>Node15</title>
<g id="a_node15"><a xlink:href="class_norm.html" target="_top" xlink:title="Abstract norm class. ">
<polygon fill="white" stroke="black" points="132.5,-190.5 132.5,-209.5 173.5,-209.5 173.5,-190.5 132.5,-190.5"/>
<text text-anchor="middle" x="153" y="-197.5" font-family="Helvetica,sans-Serif" font-size="10.00">Norm</text>
</a>
</g>
</g>
<!-- Node1&#45;&gt;Node15 -->
<g id="edge14" class="edge"><title>Node1&#45;&gt;Node15</title>
<path fill="none" stroke="midnightblue" d="M31.8912,-332.224C38.6268,-303.205 55.2155,-249.261 90,-219 101.806,-208.729 119.07,-204.01 132.384,-201.842"/>
<polygon fill="midnightblue" stroke="midnightblue" points="28.3945,-331.836 29.7102,-342.349 35.2376,-333.31 28.3945,-331.836"/>
</g>
<!-- Node19 -->
<g id="node19" class="node"><title>Node19</title>
<g id="a_node19"><a xlink:href="class_quad_over_affine.html" target="_top" xlink:title="Function F(x) = 0.5*x&#39;*Q*x + q&#39;*x + delta(x|Z) ">
<polygon fill="white" stroke="black" points="110,-152.5 110,-171.5 196,-171.5 196,-152.5 110,-152.5"/>
<text text-anchor="middle" x="153" y="-159.5" font-family="Helvetica,sans-Serif" font-size="10.00">QuadOverAffine</text>
</a>
</g>
</g>
<!-- Node1&#45;&gt;Node19 -->
<g id="edge18" class="edge"><title>Node1&#45;&gt;Node19</title>
<path fill="none" stroke="midnightblue" d="M29.5435,-332.227C33.3727,-296.819 46.4268,-222.428 90,-181 95.5481,-175.725 102.523,-171.912 109.776,-169.156"/>
<polygon fill="midnightblue" stroke="midnightblue" points="26.0516,-331.978 28.5975,-342.262 33.0207,-332.635 26.0516,-331.978"/>
</g>
<!-- Node20 -->
<g id="node20" class="node"><title>Node20</title>
<g id="a_node20"><a xlink:href="class_quadratic.html" target="_top" xlink:title="A quadratic function F(x) = 0.5 * x&#39;*Q*x + q&#39;*x ">
<polygon fill="white" stroke="black" points="123.5,-114.5 123.5,-133.5 182.5,-133.5 182.5,-114.5 123.5,-114.5"/>
<text text-anchor="middle" x="153" y="-121.5" font-family="Helvetica,sans-Serif" font-size="10.00">Quadratic</text>
</a>
</g>
</g>
<!-- Node1&#45;&gt;Node20 -->
<g id="edge19" class="edge"><title>Node1&#45;&gt;Node20</title>
<path fill="none" stroke="midnightblue" d="M28.0064,-331.953C29.1339,-290.715 37.6426,-195.83 90,-143 98.7965,-134.124 111.621,-129.373 123.327,-126.839"/>
<polygon fill="midnightblue" stroke="midnightblue" points="24.5049,-332.03 27.8538,-342.082 31.5041,-332.136 24.5049,-332.03"/>
</g>
<!-- Node21 -->
<g id="node21" class="node"><title>Node21</title>
<g id="a_node21"><a xlink:href="class_quadratic_loss.html" target="_top" xlink:title="Quadratic loss function ">
<polygon fill="white" stroke="black" points="113,-76.5 113,-95.5 193,-95.5 193,-76.5 113,-76.5"/>
<text text-anchor="middle" x="153" y="-83.5" font-family="Helvetica,sans-Serif" font-size="10.00">QuadraticLoss</text>
</a>
</g>
</g>
<!-- Node1&#45;&gt;Node21 -->
<g id="edge20" class="edge"><title>Node1&#45;&gt;Node21</title>
<path fill="none" stroke="midnightblue" d="M30.4521,-332.184C37.3398,-279.591 58.4416,-138.225 90,-105 96.1251,-98.5515 104.374,-94.2736 112.853,-91.4406"/>
<polygon fill="midnightblue" stroke="midnightblue" points="26.9617,-331.887 29.167,-342.25 33.9054,-332.774 26.9617,-331.887"/>
</g>
<!-- Node22 -->
<g id="node22" class="node"><title>Node22</title>
<g id="a_node22"><a xlink:href="class_quadratic_loss_over_affine.html" target="_top" xlink:title="Quadratic loss over an affine subspace ">
<polygon fill="white" stroke="black" points="90,-38.5 90,-57.5 216,-57.5 216,-38.5 90,-38.5"/>
<text text-anchor="middle" x="153" y="-45.5" font-family="Helvetica,sans-Serif" font-size="10.00">QuadraticLossOverAffine</text>
</a>
</g>
</g>
<!-- Node1&#45;&gt;Node22 -->
<g id="edge21" class="edge"><title>Node1&#45;&gt;Node22</title>
<path fill="none" stroke="midnightblue" d="M29.7255,-332.27C35.1755,-274.332 53.8389,-106.301 90,-67 93.5827,-63.1062 97.9397,-60.0018 102.666,-57.5281"/>
<polygon fill="midnightblue" stroke="midnightblue" points="26.2318,-332.043 28.8104,-342.319 33.203,-332.677 26.2318,-332.043"/>
</g>
<!-- Node23 -->
<g id="node23" class="node"><title>Node23</title>
<g id="a_node23"><a xlink:href="class_separable_sum.html" target="_top" xlink:title="Separable sum. ">
<polygon fill="white" stroke="black" points="113,-0.5 113,-19.5 193,-19.5 193,-0.5 113,-0.5"/>
<text text-anchor="middle" x="153" y="-7.5" font-family="Helvetica,sans-Serif" font-size="10.00">SeparableSum</text>
</a>
</g>
</g>
<!-- Node1&#45;&gt;Node23 -->
<g id="edge22" class="edge"><title>Node1&#45;&gt;Node23</title>
<path fill="none" stroke="midnightblue" d="M29.1806,-332.176C33.3277,-269.08 49.2436,-74.4014 90,-29 96.0164,-22.2979 104.327,-17.9292 112.911,-15.0899"/>
<polygon fill="midnightblue" stroke="midnightblue" points="25.6748,-332.161 28.5399,-342.361 32.661,-332.6 25.6748,-332.161"/>
</g>
<!-- Node16 -->
<g id="node16" class="node"><title>Node16</title>
<g id="a_node16"><a xlink:href="class_norm1.html" target="_top" xlink:title="Norm&#45;1 loss function ">
<polygon fill="white" stroke="black" points="268,-228.5 268,-247.5 314,-247.5 314,-228.5 268,-228.5"/>
<text text-anchor="middle" x="291" y="-235.5" font-family="Helvetica,sans-Serif" font-size="10.00">Norm1</text>
</a>
</g>
</g>
<!-- Node15&#45;&gt;Node16 -->
<g id="edge15" class="edge"><title>Node15&#45;&gt;Node16</title>
<path fill="none" stroke="midnightblue" d="M183.604,-208.272C208.997,-215.367 245.016,-225.431 267.944,-231.837"/>
<polygon fill="midnightblue" stroke="midnightblue" points="184.349,-204.846 173.776,-205.526 182.465,-211.588 184.349,-204.846"/>
</g>
<!-- Node17 -->
<g id="node17" class="node"><title>Node17</title>
<g id="a_node17"><a xlink:href="class_norm2.html" target="_top" xlink:title="Euclidean norm. ">
<polygon fill="white" stroke="black" points="268,-190.5 268,-209.5 314,-209.5 314,-190.5 268,-190.5"/>
<text text-anchor="middle" x="291" y="-197.5" font-family="Helvetica,sans-Serif" font-size="10.00">Norm2</text>
</a>
</g>
</g>
<!-- Node15&#45;&gt;Node17 -->
<g id="edge16" class="edge"><title>Node15&#45;&gt;Node17</title>
<path fill="none" stroke="midnightblue" d="M183.943,-200C209.317,-200 245.118,-200 267.944,-200"/>
<polygon fill="midnightblue" stroke="midnightblue" points="183.776,-196.5 173.776,-200 183.776,-203.5 183.776,-196.5"/>
</g>
<!-- Node18 -->
<g id="node18" class="node"><title>Node18</title>
<g id="a_node18"><a xlink:href="class_sum_of_norm2.html" target="_top" xlink:title="Sum of 2&#45;norms. ">
<polygon fill="white" stroke="black" points="252.5,-152.5 252.5,-171.5 329.5,-171.5 329.5,-152.5 252.5,-152.5"/>
<text text-anchor="middle" x="291" y="-159.5" font-family="Helvetica,sans-Serif" font-size="10.00">SumOfNorm2</text>
</a>
</g>
</g>
<!-- Node15&#45;&gt;Node18 -->
<g id="edge17" class="edge"><title>Node15&#45;&gt;Node18</title>
<path fill="none" stroke="midnightblue" d="M183.576,-191.736C204.893,-185.78 233.709,-177.728 255.98,-171.506"/>
<polygon fill="midnightblue" stroke="midnightblue" points="182.465,-188.412 173.776,-194.474 184.349,-195.154 182.465,-188.412"/>
</g>
</g>
</svg>
