<?xml version="1.0" encoding="UTF-8" standalone="no"?>
<!DOCTYPE svg PUBLIC "-//W3C//DTD SVG 1.1//EN"
 "http://www.w3.org/Graphics/SVG/1.1/DTD/svg11.dtd">
<!-- Generated by graphviz version 2.36.0 (20140111.2315)
 -->
<!-- Title: LinSysSolver Pages: 1 -->
<svg width="352pt" height="196pt"
 viewBox="0.00 0.00 352.00 196.00" xmlns="http://www.w3.org/2000/svg" xmlns:xlink="http://www.w3.org/1999/xlink">
<g id="graph0" class="graph" transform="scale(1 1) rotate(0) translate(4 192)">
<title>LinSysSolver</title>
<polygon fill="white" stroke="none" points="-4,4 -4,-192 348,-192 348,4 -4,4"/>
<!-- Node1 -->
<g id="node1" class="node"><title>Node1</title>
<polygon fill="#bfbfbf" stroke="black" points="96,-168.5 96,-187.5 170,-187.5 170,-168.5 96,-168.5"/>
<text text-anchor="middle" x="133" y="-175.5" font-family="Helvetica,sans-Serif" font-size="10.00">LinSysSolver</text>
</g>
<!-- Node2 -->
<g id="node2" class="node"><title>Node2</title>
<g id="a_node2"><a xlink:href="class_lin_op_solver.html" target="_top" xlink:title="An abstract solver for linear operator equations. ">
<polygon fill="white" stroke="black" points="54,-112.5 54,-131.5 124,-131.5 124,-112.5 54,-112.5"/>
<text text-anchor="middle" x="89" y="-119.5" font-family="Helvetica,sans-Serif" font-size="10.00">LinOpSolver</text>
</a>
</g>
</g>
<!-- Node1&#45;&gt;Node2 -->
<g id="edge1" class="edge"><title>Node1&#45;&gt;Node2</title>
<path fill="none" stroke="midnightblue" d="M119.265,-160.144C111.599,-150.736 102.367,-139.405 96.1305,-131.751"/>
<polygon fill="midnightblue" stroke="midnightblue" points="116.704,-162.541 125.734,-168.083 122.131,-158.12 116.704,-162.541"/>
</g>
<!-- Node4 -->
<g id="node4" class="node"><title>Node4</title>
<g id="a_node4"><a xlink:href="class_matrix_solver.html" target="_top" xlink:title="Abstraction layer for linear systems. ">
<polygon fill="white" stroke="black" points="142.5,-112.5 142.5,-131.5 213.5,-131.5 213.5,-112.5 142.5,-112.5"/>
<text text-anchor="middle" x="178" y="-119.5" font-family="Helvetica,sans-Serif" font-size="10.00">MatrixSolver</text>
</a>
</g>
</g>
<!-- Node1&#45;&gt;Node4 -->
<g id="edge3" class="edge"><title>Node1&#45;&gt;Node4</title>
<path fill="none" stroke="midnightblue" d="M147.047,-160.144C154.887,-150.736 164.329,-139.405 170.707,-131.751"/>
<polygon fill="midnightblue" stroke="midnightblue" points="144.144,-158.16 140.431,-168.083 149.521,-162.641 144.144,-158.16"/>
</g>
<!-- Node3 -->
<g id="node3" class="node"><title>Node3</title>
<g id="a_node3"><a xlink:href="class_c_g_solver.html" target="_top" xlink:title="Conjugate gradient solver. ">
<polygon fill="white" stroke="black" points="59.5,-56.5 59.5,-75.5 118.5,-75.5 118.5,-56.5 59.5,-56.5"/>
<text text-anchor="middle" x="89" y="-63.5" font-family="Helvetica,sans-Serif" font-size="10.00">CGSolver</text>
</a>
</g>
</g>
<!-- Node2&#45;&gt;Node3 -->
<g id="edge2" class="edge"><title>Node2&#45;&gt;Node3</title>
<path fill="none" stroke="midnightblue" d="M89,-101.805C89,-92.9102 89,-82.7798 89,-75.7511"/>
<polygon fill="midnightblue" stroke="midnightblue" points="85.5001,-102.083 89,-112.083 92.5001,-102.083 85.5001,-102.083"/>
</g>
<!-- Node5 -->
<g id="node5" class="node"><title>Node5</title>
<g id="a_node5"><a xlink:href="class_factored_solver.html" target="_top" xlink:title="An abstract factorization&#45;based solver for linear systems. ">
<polygon fill="white" stroke="black" points="136.5,-56.5 136.5,-75.5 219.5,-75.5 219.5,-56.5 136.5,-56.5"/>
<text text-anchor="middle" x="178" y="-63.5" font-family="Helvetica,sans-Serif" font-size="10.00">FactoredSolver</text>
</a>
</g>
</g>
<!-- Node4&#45;&gt;Node5 -->
<g id="edge4" class="edge"><title>Node4&#45;&gt;Node5</title>
<path fill="none" stroke="midnightblue" d="M178,-101.805C178,-92.9102 178,-82.7798 178,-75.7511"/>
<polygon fill="midnightblue" stroke="midnightblue" points="174.5,-102.083 178,-112.083 181.5,-102.083 174.5,-102.083"/>
</g>
<!-- Node6 -->
<g id="node6" class="node"><title>Node6</title>
<g id="a_node6"><a xlink:href="class_cholesky_factorization.html" target="_top" xlink:title="Cholesky factorization and solver. ">
<polygon fill="white" stroke="black" points="0,-0.5 0,-19.5 114,-19.5 114,-0.5 0,-0.5"/>
<text text-anchor="middle" x="57" y="-7.5" font-family="Helvetica,sans-Serif" font-size="10.00">CholeskyFactorization</text>
</a>
</g>
</g>
<!-- Node5&#45;&gt;Node6 -->
<g id="edge5" class="edge"><title>Node5&#45;&gt;Node6</title>
<path fill="none" stroke="midnightblue" d="M149.694,-52.3678C127.035,-42.2553 95.8737,-28.3486 76.0831,-19.5164"/>
<polygon fill="midnightblue" stroke="midnightblue" points="148.269,-55.5643 158.827,-56.4435 151.122,-49.1719 148.269,-55.5643"/>
</g>
<!-- Node7 -->
<g id="node7" class="node"><title>Node7</title>
<g id="a_node7"><a xlink:href="class_l_d_l_factorization.html" target="_top" xlink:title="LDL factorization and solver. ">
<polygon fill="white" stroke="black" points="132.5,-0.5 132.5,-19.5 223.5,-19.5 223.5,-0.5 132.5,-0.5"/>
<text text-anchor="middle" x="178" y="-7.5" font-family="Helvetica,sans-Serif" font-size="10.00">LDLFactorization</text>
</a>
</g>
</g>
<!-- Node5&#45;&gt;Node7 -->
<g id="edge6" class="edge"><title>Node5&#45;&gt;Node7</title>
<path fill="none" stroke="midnightblue" d="M178,-45.8045C178,-36.9102 178,-26.7798 178,-19.7511"/>
<polygon fill="midnightblue" stroke="midnightblue" points="174.5,-46.083 178,-56.083 181.5,-46.083 174.5,-46.083"/>
</g>
<!-- Node8 -->
<g id="node8" class="node"><title>Node8</title>
<g id="a_node8"><a xlink:href="class_s___l_d_l_factorization.html" target="_top" xlink:title="LDL factorization of A&#39;A+bI. ">
<polygon fill="white" stroke="black" points="241.5,-0.5 241.5,-19.5 344.5,-19.5 344.5,-0.5 241.5,-0.5"/>
<text text-anchor="middle" x="293" y="-7.5" font-family="Helvetica,sans-Serif" font-size="10.00">S_LDLFactorization</text>
</a>
</g>
</g>
<!-- Node5&#45;&gt;Node8 -->
<g id="edge7" class="edge"><title>Node5&#45;&gt;Node8</title>
<path fill="none" stroke="midnightblue" d="M205.481,-52.096C226.966,-42.0073 256.222,-28.2697 274.863,-19.5164"/>
<polygon fill="midnightblue" stroke="midnightblue" points="203.786,-49.025 196.222,-56.4435 206.762,-55.3612 203.786,-49.025"/>
</g>
</g>
</svg>
