<?xml version="1.0" encoding="UTF-8" standalone="no"?>
<!DOCTYPE svg PUBLIC "-//W3C//DTD SVG 1.1//EN"
 "http://www.w3.org/Graphics/SVG/1.1/DTD/svg11.dtd">
<!-- Generated by graphviz version 2.36.0 (20140111.2315)
 -->
<!-- Title: Norm Pages: 1 -->
<svg width="213pt" height="140pt"
 viewBox="0.00 0.00 213.00 140.00" xmlns="http://www.w3.org/2000/svg" xmlns:xlink="http://www.w3.org/1999/xlink">
<g id="graph0" class="graph" transform="scale(1 1) rotate(0) translate(4 136)">
<title>Norm</title>
<polygon fill="white" stroke="none" points="-4,4 -4,-136 209,-136 209,4 -4,4"/>
<!-- Node1 -->
<g id="node1" class="node"><title>Node1</title>
<polygon fill="#bfbfbf" stroke="black" points="66.5,-56.5 66.5,-75.5 107.5,-75.5 107.5,-56.5 66.5,-56.5"/>
<text text-anchor="middle" x="87" y="-63.5" font-family="Helvetica,sans-Serif" font-size="10.00">Norm</text>
</g>
<!-- Node3 -->
<g id="node3" class="node"><title>Node3</title>
<g id="a_node3"><a xlink:href="class_norm1.html" target="_top" xlink:title="Norm&#45;1 loss function ">
<polygon fill="white" stroke="black" points="0,-0.5 0,-19.5 46,-19.5 46,-0.5 0,-0.5"/>
<text text-anchor="middle" x="23" y="-7.5" font-family="Helvetica,sans-Serif" font-size="10.00">Norm1</text>
</a>
</g>
</g>
<!-- Node1&#45;&gt;Node3 -->
<g id="edge2" class="edge"><title>Node1&#45;&gt;Node3</title>
<path fill="none" stroke="midnightblue" d="M69.0085,-49.8197C57.5424,-40.1452 43.0867,-27.9481 33.4698,-19.8339"/>
<polygon fill="midnightblue" stroke="midnightblue" points="66.8173,-52.5502 76.7173,-56.324 71.3314,-47.2002 66.8173,-52.5502"/>
</g>
<!-- Node4 -->
<g id="node4" class="node"><title>Node4</title>
<g id="a_node4"><a xlink:href="class_norm2.html" target="_top" xlink:title="Euclidean norm. ">
<polygon fill="white" stroke="black" points="64,-0.5 64,-19.5 110,-19.5 110,-0.5 64,-0.5"/>
<text text-anchor="middle" x="87" y="-7.5" font-family="Helvetica,sans-Serif" font-size="10.00">Norm2</text>
</a>
</g>
</g>
<!-- Node1&#45;&gt;Node4 -->
<g id="edge3" class="edge"><title>Node1&#45;&gt;Node4</title>
<path fill="none" stroke="midnightblue" d="M87,-45.8045C87,-36.9102 87,-26.7798 87,-19.7511"/>
<polygon fill="midnightblue" stroke="midnightblue" points="83.5001,-46.083 87,-56.083 90.5001,-46.083 83.5001,-46.083"/>
</g>
<!-- Node5 -->
<g id="node5" class="node"><title>Node5</title>
<g id="a_node5"><a xlink:href="class_sum_of_norm2.html" target="_top" xlink:title="Sum of 2&#45;norms. ">
<polygon fill="white" stroke="black" points="128.5,-0.5 128.5,-19.5 205.5,-19.5 205.5,-0.5 128.5,-0.5"/>
<text text-anchor="middle" x="167" y="-7.5" font-family="Helvetica,sans-Serif" font-size="10.00">SumOfNorm2</text>
</a>
</g>
</g>
<!-- Node1&#45;&gt;Node5 -->
<g id="edge4" class="edge"><title>Node1&#45;&gt;Node5</title>
<path fill="none" stroke="midnightblue" d="M108.301,-50.6221C122.915,-40.7574 141.827,-27.9919 154.179,-19.6545"/>
<polygon fill="midnightblue" stroke="midnightblue" points="106.184,-47.8282 99.8534,-56.324 110.1,-53.6302 106.184,-47.8282"/>
</g>
<!-- Node2 -->
<g id="node2" class="node"><title>Node2</title>
<g id="a_node2"><a xlink:href="class_function.html" target="_top" xlink:title="A ForBES function. ">
<polygon fill="white" stroke="black" points="60,-112.5 60,-131.5 114,-131.5 114,-112.5 60,-112.5"/>
<text text-anchor="middle" x="87" y="-119.5" font-family="Helvetica,sans-Serif" font-size="10.00">Function</text>
</a>
</g>
</g>
<!-- Node2&#45;&gt;Node1 -->
<g id="edge1" class="edge"><title>Node2&#45;&gt;Node1</title>
<path fill="none" stroke="midnightblue" d="M87,-101.805C87,-92.9102 87,-82.7798 87,-75.7511"/>
<polygon fill="midnightblue" stroke="midnightblue" points="83.5001,-102.083 87,-112.083 90.5001,-102.083 83.5001,-102.083"/>
</g>
</g>
</svg>
