<?xml version="1.0" encoding="UTF-8" standalone="no"?>
<!DOCTYPE svg PUBLIC "-//W3C//DTD SVG 1.1//EN"
 "http://www.w3.org/Graphics/SVG/1.1/DTD/svg11.dtd">
<!-- Generated by graphviz version 2.36.0 (20140111.2315)
 -->
<!-- Title: LinOpSolver Pages: 1 -->
<svg width="180pt" height="96pt"
 viewBox="0.00 0.00 180.00 96.00" xmlns="http://www.w3.org/2000/svg" xmlns:xlink="http://www.w3.org/1999/xlink">
<g id="graph0" class="graph" transform="scale(1 1) rotate(0) translate(4 92)">
<title>LinOpSolver</title>
<polygon fill="white" stroke="none" points="-4,4 -4,-92 176,-92 176,4 -4,4"/>
<!-- Node1 -->
<g id="node1" class="node"><title>Node1</title>
<polygon fill="#bfbfbf" stroke="black" points="49,-0.5 49,-19.5 119,-19.5 119,-0.5 49,-0.5"/>
<text text-anchor="middle" x="84" y="-7.5" font-family="Helvetica,sans-Serif" font-size="10.00">LinOpSolver</text>
</g>
<!-- Node2 -->
<g id="node2" class="node"><title>Node2</title>
<g id="a_node2"><a xlink:href="class_lin_sys_solver.html" target="_top" xlink:title="An abstract solver for linear systems. ">
<polygon fill="white" stroke="black" points="0,-68.5 0,-87.5 74,-87.5 74,-68.5 0,-68.5"/>
<text text-anchor="middle" x="37" y="-75.5" font-family="Helvetica,sans-Serif" font-size="10.00">LinSysSolver</text>
</a>
</g>
</g>
<!-- Node2&#45;&gt;Node1 -->
<g id="edge1" class="edge"><title>Node2&#45;&gt;Node1</title>
<path fill="none" stroke="midnightblue" d="M49.1504,-59.9377C58.2839,-47.112 70.4276,-30.0591 77.7041,-19.8411"/>
<polygon fill="midnightblue" stroke="midnightblue" points="46.0942,-58.1957 43.1444,-68.3717 51.7962,-62.2562 46.0942,-58.1957"/>
</g>
<!-- Node3 -->
<g id="node3" class="node"><title>Node3</title>
<g id="a_node3"><a xlink:href="class_linear_operator.html" target="_top" xlink:title="A linear operator T(x) ">
<polygon fill="white" stroke="black" points="92,-68.5 92,-87.5 172,-87.5 172,-68.5 92,-68.5"/>
<text text-anchor="middle" x="132" y="-75.5" font-family="Helvetica,sans-Serif" font-size="10.00">LinearOperator</text>
</a>
</g>
</g>
<!-- Node3&#45;&gt;Node1 -->
<g id="edge2" class="edge"><title>Node3&#45;&gt;Node1</title>
<path fill="none" stroke="#9a32cd" stroke-dasharray="5,2" d="M119.591,-59.9377C110.263,-47.112 97.8612,-30.0591 90.4299,-19.8411"/>
<polygon fill="#9a32cd" stroke="#9a32cd" points="117.012,-62.3429 125.725,-68.3717 122.674,-58.2257 117.012,-62.3429"/>
<text text-anchor="middle" x="130.5" y="-41.5" font-family="Helvetica,sans-Serif" font-size="10.00"> m_linop</text>
</g>
</g>
</svg>
