<?xml version="1.0" encoding="UTF-8" standalone="no"?>
<!DOCTYPE svg PUBLIC "-//W3C//DTD SVG 1.1//EN"
 "http://www.w3.org/Graphics/SVG/1.1/DTD/svg11.dtd">
<!-- Generated by graphviz version 2.36.0 (20140111.2315)
 -->
<!-- Title: FBSplittingFast Pages: 1 -->
<svg width="92pt" height="154pt"
 viewBox="0.00 0.00 92.00 154.00" xmlns="http://www.w3.org/2000/svg" xmlns:xlink="http://www.w3.org/1999/xlink">
<g id="graph0" class="graph" transform="scale(1 1) rotate(0) translate(4 150)">
<title>FBSplittingFast</title>
<polygon fill="white" stroke="none" points="-4,4 -4,-150 88,-150 88,4 -4,4"/>
<!-- Node1 -->
<g id="node1" class="node"><title>Node1</title>
<polygon fill="#bfbfbf" stroke="black" points="-1,-0.5 -1,-19.5 83,-19.5 83,-0.5 -1,-0.5"/>
<text text-anchor="middle" x="41" y="-7.5" font-family="Helvetica,sans-Serif" font-size="10.00">FBSplittingFast</text>
</g>
<!-- Node2 -->
<g id="node2" class="node"><title>Node2</title>
<g id="a_node2"><a xlink:href="class_f_b_splitting.html" target="_top" xlink:title="Forward&#45;backward splitting algorithm. ">
<polygon fill="white" stroke="black" points="8.5,-58.5 8.5,-77.5 73.5,-77.5 73.5,-58.5 8.5,-58.5"/>
<text text-anchor="middle" x="41" y="-65.5" font-family="Helvetica,sans-Serif" font-size="10.00">FBSplitting</text>
</a>
</g>
</g>
<!-- Node2&#45;&gt;Node1 -->
<g id="edge1" class="edge"><title>Node2&#45;&gt;Node1</title>
<path fill="none" stroke="midnightblue" d="M41,-47.953C41,-38.2875 41,-27.0312 41,-19.5052"/>
<polygon fill="midnightblue" stroke="midnightblue" points="37.5001,-48.25 41,-58.25 44.5001,-48.25 37.5001,-48.25"/>
</g>
<!-- Node3 -->
<g id="node3" class="node"><title>Node3</title>
<g id="a_node3"><a xlink:href="class_f_b_cache.html" target="_top" xlink:title="Low&#45;level forward&#45;backward operations management class. ">
<polygon fill="white" stroke="black" points="12,-126.5 12,-145.5 70,-145.5 70,-126.5 12,-126.5"/>
<text text-anchor="middle" x="41" y="-133.5" font-family="Helvetica,sans-Serif" font-size="10.00">FBCache</text>
</a>
</g>
</g>
<!-- Node3&#45;&gt;Node2 -->
<g id="edge2" class="edge"><title>Node3&#45;&gt;Node2</title>
<path fill="none" stroke="#9a32cd" stroke-dasharray="5,2" d="M41,-116.041C41,-103.472 41,-87.5631 41,-77.8411"/>
<polygon fill="#9a32cd" stroke="#9a32cd" points="37.5001,-116.372 41,-126.372 44.5001,-116.372 37.5001,-116.372"/>
<text text-anchor="middle" x="62.5" y="-99.5" font-family="Helvetica,sans-Serif" font-size="10.00"> m_cache</text>
</g>
</g>
</svg>
