<?xml version="1.0" encoding="UTF-8" standalone="no"?>
<!DOCTYPE svg PUBLIC "-//W3C//DTD SVG 1.1//EN"
 "http://www.w3.org/Graphics/SVG/1.1/DTD/svg11.dtd">
<!-- Generated by graphviz version 2.36.0 (20140111.2315)
 -->
<!-- Title: FactoredSolver Pages: 1 -->
<svg width="149pt" height="154pt"
 viewBox="0.00 0.00 149.00 154.00" xmlns="http://www.w3.org/2000/svg" xmlns:xlink="http://www.w3.org/1999/xlink">
<g id="graph0" class="graph" transform="scale(1 1) rotate(0) translate(4 150)">
<title>FactoredSolver</title>
<polygon fill="white" stroke="none" points="-4,4 -4,-150 145,-150 145,4 -4,4"/>
<!-- Node1 -->
<g id="node1" class="node"><title>Node1</title>
<polygon fill="#bfbfbf" stroke="black" points="33.5,-0.5 33.5,-19.5 116.5,-19.5 116.5,-0.5 33.5,-0.5"/>
<text text-anchor="middle" x="75" y="-7.5" font-family="Helvetica,sans-Serif" font-size="10.00">FactoredSolver</text>
</g>
<!-- Node2 -->
<g id="node2" class="node"><title>Node2</title>
<g id="a_node2"><a xlink:href="class_matrix_solver.html" target="_top" xlink:title="Abstraction layer for linear systems. ">
<polygon fill="white" stroke="black" points="39.5,-58.5 39.5,-77.5 110.5,-77.5 110.5,-58.5 39.5,-58.5"/>
<text text-anchor="middle" x="75" y="-65.5" font-family="Helvetica,sans-Serif" font-size="10.00">MatrixSolver</text>
</a>
</g>
</g>
<!-- Node2&#45;&gt;Node1 -->
<g id="edge1" class="edge"><title>Node2&#45;&gt;Node1</title>
<path fill="none" stroke="midnightblue" d="M75,-47.953C75,-38.2875 75,-27.0312 75,-19.5052"/>
<polygon fill="midnightblue" stroke="midnightblue" points="71.5001,-48.25 75,-58.25 78.5001,-48.25 71.5001,-48.25"/>
</g>
<!-- Node3 -->
<g id="node3" class="node"><title>Node3</title>
<g id="a_node3"><a xlink:href="class_lin_sys_solver.html" target="_top" xlink:title="An abstract solver for linear systems. ">
<polygon fill="white" stroke="black" points="0,-126.5 0,-145.5 74,-145.5 74,-126.5 0,-126.5"/>
<text text-anchor="middle" x="37" y="-133.5" font-family="Helvetica,sans-Serif" font-size="10.00">LinSysSolver</text>
</a>
</g>
</g>
<!-- Node3&#45;&gt;Node2 -->
<g id="edge2" class="edge"><title>Node3&#45;&gt;Node2</title>
<path fill="none" stroke="midnightblue" d="M47.0395,-117.563C54.3985,-104.781 64.0837,-87.9599 69.9097,-77.8411"/>
<polygon fill="midnightblue" stroke="midnightblue" points="43.9243,-115.959 41.9678,-126.372 49.9907,-119.452 43.9243,-115.959"/>
</g>
<!-- Node4 -->
<g id="node4" class="node"><title>Node4</title>
<g id="a_node4"><a xlink:href="class_matrix.html" target="_top" xlink:title="A generic matrix API. ">
<polygon fill="white" stroke="black" points="92,-126.5 92,-145.5 136,-145.5 136,-126.5 92,-126.5"/>
<text text-anchor="middle" x="114" y="-133.5" font-family="Helvetica,sans-Serif" font-size="10.00">Matrix</text>
</a>
</g>
</g>
<!-- Node4&#45;&gt;Node2 -->
<g id="edge3" class="edge"><title>Node4&#45;&gt;Node2</title>
<path fill="none" stroke="#9a32cd" stroke-dasharray="5,2" d="M103.696,-117.563C96.1436,-104.781 86.2036,-87.9599 80.2243,-77.8411"/>
<polygon fill="#9a32cd" stroke="#9a32cd" points="100.801,-119.543 108.901,-126.372 106.827,-115.982 100.801,-119.543"/>
<text text-anchor="middle" x="119" y="-99.5" font-family="Helvetica,sans-Serif" font-size="10.00"> m_matrix</text>
</g>
</g>
</svg>
