<?xml version="1.0" encoding="UTF-8" standalone="no"?>
<!DOCTYPE svg PUBLIC "-//W3C//DTD SVG 1.1//EN"
 "http://www.w3.org/Graphics/SVG/1.1/DTD/svg11.dtd">
<!-- Generated by graphviz version 2.36.0 (20140111.2315)
 -->
<!-- Title: Graphical Class Hierarchy Pages: 1 -->
<svg width="460pt" height="104pt"
 viewBox="0.00 0.00 460.00 104.00" xmlns="http://www.w3.org/2000/svg" xmlns:xlink="http://www.w3.org/1999/xlink">
<g id="graph0" class="graph" transform="scale(1 1) rotate(0) translate(4 100)">
<title>Graphical Class Hierarchy</title>
<polygon fill="white" stroke="none" points="-4,4 -4,-100 456,-100 456,4 -4,4"/>
<!-- Node1 -->
<g id="node1" class="node"><title>Node1</title>
<g id="a_node1"><a xlink:href="class_lin_sys_solver.html" target="_top" xlink:title="An abstract solver for linear systems. ">
<polygon fill="white" stroke="black" points="0,-57.5 0,-76.5 74,-76.5 74,-57.5 0,-57.5"/>
<text text-anchor="middle" x="37" y="-64.5" font-family="Helvetica,sans-Serif" font-size="10.00">LinSysSolver</text>
</a>
</g>
</g>
<!-- Node2 -->
<g id="node2" class="node"><title>Node2</title>
<g id="a_node2"><a xlink:href="class_lin_op_solver.html" target="_top" xlink:title="An abstract solver for linear operator equations. ">
<polygon fill="white" stroke="black" points="111,-76.5 111,-95.5 181,-95.5 181,-76.5 111,-76.5"/>
<text text-anchor="middle" x="146" y="-83.5" font-family="Helvetica,sans-Serif" font-size="10.00">LinOpSolver</text>
</a>
</g>
</g>
<!-- Node1&#45;&gt;Node2 -->
<g id="edge1" class="edge"><title>Node1&#45;&gt;Node2</title>
<path fill="none" stroke="midnightblue" d="M84.2033,-75.2043C93.1956,-76.8011 102.468,-78.4476 110.979,-79.9589"/>
<polygon fill="midnightblue" stroke="midnightblue" points="84.6832,-71.7349 74.2253,-73.4325 83.4593,-78.6271 84.6832,-71.7349"/>
</g>
<!-- Node4 -->
<g id="node4" class="node"><title>Node4</title>
<g id="a_node4"><a xlink:href="class_matrix_solver.html" target="_top" xlink:title="Abstraction layer for linear systems. ">
<polygon fill="white" stroke="black" points="110.5,-38.5 110.5,-57.5 181.5,-57.5 181.5,-38.5 110.5,-38.5"/>
<text text-anchor="middle" x="146" y="-45.5" font-family="Helvetica,sans-Serif" font-size="10.00">MatrixSolver</text>
</a>
</g>
</g>
<!-- Node1&#45;&gt;Node4 -->
<g id="edge3" class="edge"><title>Node1&#45;&gt;Node4</title>
<path fill="none" stroke="midnightblue" d="M84.2803,-58.782C92.9959,-57.2344 101.972,-55.6405 110.26,-54.1688"/>
<polygon fill="midnightblue" stroke="midnightblue" points="83.4593,-55.3729 74.2253,-60.5675 84.6832,-62.2651 83.4593,-55.3729"/>
</g>
<!-- Node3 -->
<g id="node3" class="node"><title>Node3</title>
<g id="a_node3"><a xlink:href="class_c_g_solver.html" target="_top" xlink:title="Conjugate gradient solver. ">
<polygon fill="white" stroke="black" points="230.5,-76.5 230.5,-95.5 289.5,-95.5 289.5,-76.5 230.5,-76.5"/>
<text text-anchor="middle" x="260" y="-83.5" font-family="Helvetica,sans-Serif" font-size="10.00">CGSolver</text>
</a>
</g>
</g>
<!-- Node2&#45;&gt;Node3 -->
<g id="edge2" class="edge"><title>Node2&#45;&gt;Node3</title>
<path fill="none" stroke="midnightblue" d="M191.449,-86C204.519,-86 218.468,-86 230.275,-86"/>
<polygon fill="midnightblue" stroke="midnightblue" points="191.212,-82.5001 181.212,-86 191.212,-89.5001 191.212,-82.5001"/>
</g>
<!-- Node5 -->
<g id="node5" class="node"><title>Node5</title>
<g id="a_node5"><a xlink:href="class_factored_solver.html" target="_top" xlink:title="An abstract factorization&#45;based solver for linear systems. ">
<polygon fill="white" stroke="black" points="218.5,-38.5 218.5,-57.5 301.5,-57.5 301.5,-38.5 218.5,-38.5"/>
<text text-anchor="middle" x="260" y="-45.5" font-family="Helvetica,sans-Serif" font-size="10.00">FactoredSolver</text>
</a>
</g>
</g>
<!-- Node4&#45;&gt;Node5 -->
<g id="edge4" class="edge"><title>Node4&#45;&gt;Node5</title>
<path fill="none" stroke="midnightblue" d="M191.567,-48C200.326,-48 209.476,-48 218.107,-48"/>
<polygon fill="midnightblue" stroke="midnightblue" points="191.518,-44.5001 181.518,-48 191.518,-51.5001 191.518,-44.5001"/>
</g>
<!-- Node6 -->
<g id="node6" class="node"><title>Node6</title>
<g id="a_node6"><a xlink:href="class_cholesky_factorization.html" target="_top" xlink:title="Cholesky factorization and solver. ">
<polygon fill="white" stroke="black" points="338,-76.5 338,-95.5 452,-95.5 452,-76.5 338,-76.5"/>
<text text-anchor="middle" x="395" y="-83.5" font-family="Helvetica,sans-Serif" font-size="10.00">CholeskyFactorization</text>
</a>
</g>
</g>
<!-- Node5&#45;&gt;Node6 -->
<g id="edge5" class="edge"><title>Node5&#45;&gt;Node6</title>
<path fill="none" stroke="midnightblue" d="M304.367,-60.3906C322.581,-65.5945 343.439,-71.5541 360.449,-76.4141"/>
<polygon fill="midnightblue" stroke="midnightblue" points="305.138,-56.971 294.562,-57.589 303.215,-63.7016 305.138,-56.971"/>
</g>
<!-- Node7 -->
<g id="node7" class="node"><title>Node7</title>
<g id="a_node7"><a xlink:href="class_l_d_l_factorization.html" target="_top" xlink:title="LDL factorization and solver. ">
<polygon fill="white" stroke="black" points="349.5,-38.5 349.5,-57.5 440.5,-57.5 440.5,-38.5 349.5,-38.5"/>
<text text-anchor="middle" x="395" y="-45.5" font-family="Helvetica,sans-Serif" font-size="10.00">LDLFactorization</text>
</a>
</g>
</g>
<!-- Node5&#45;&gt;Node7 -->
<g id="edge6" class="edge"><title>Node5&#45;&gt;Node7</title>
<path fill="none" stroke="midnightblue" d="M311.816,-48C324.211,-48 337.376,-48 349.453,-48"/>
<polygon fill="midnightblue" stroke="midnightblue" points="311.627,-44.5001 301.627,-48 311.627,-51.5001 311.627,-44.5001"/>
</g>
<!-- Node8 -->
<g id="node8" class="node"><title>Node8</title>
<g id="a_node8"><a xlink:href="class_s___l_d_l_factorization.html" target="_top" xlink:title="LDL factorization of A&#39;A+bI. ">
<polygon fill="white" stroke="black" points="343.5,-0.5 343.5,-19.5 446.5,-19.5 446.5,-0.5 343.5,-0.5"/>
<text text-anchor="middle" x="395" y="-7.5" font-family="Helvetica,sans-Serif" font-size="10.00">S_LDLFactorization</text>
</a>
</g>
</g>
<!-- Node5&#45;&gt;Node8 -->
<g id="edge7" class="edge"><title>Node5&#45;&gt;Node8</title>
<path fill="none" stroke="midnightblue" d="M304.367,-35.6094C322.581,-30.4055 343.439,-24.4459 360.449,-19.5859"/>
<polygon fill="midnightblue" stroke="midnightblue" points="303.215,-32.2984 294.562,-38.411 305.138,-39.029 303.215,-32.2984"/>
</g>
</g>
</svg>
